<svg xmlns="http://www.w3.org/2000/svg" width="32" height="32" viewBox="0 0 44 44" fill="none">
  <!-- Warp (vertical threads) -->
  <line x1="13" y1="6"  x2="13" y2="38" stroke="#171717" stroke-width="3" stroke-linecap="round"/>
  <line x1="22" y1="6"  x2="22" y2="38" stroke="#171717" stroke-width="3" stroke-linecap="round"/>
  <line x1="31" y1="6"  x2="31" y2="38" stroke="#171717" stroke-width="3" stroke-linecap="round"/>
  <!-- Weft row 1 -->
  <line x1="6"  y1="15" x2="11" y2="15" stroke="#0a72ef" stroke-width="3" stroke-linecap="round"/>
  <line x1="15" y1="15" x2="29" y2="15" stroke="#0a72ef" stroke-width="3" stroke-linecap="round"/>
  <line x1="33" y1="15" x2="38" y2="15" stroke="#0a72ef" stroke-width="3" stroke-linecap="round"/>
  <!-- Weft row 2 -->
  <line x1="6"  y1="22" x2="15" y2="22" stroke="#0a72ef" stroke-width="3" stroke-linecap="round"/>
  <line x1="20" y1="22" x2="38" y2="22" stroke="#0a72ef" stroke-width="3" stroke-linecap="round"/>
  <!-- Weft row 3 -->
  <line x1="6"  y1="29" x2="11" y2="29" stroke="#0a72ef" stroke-width="3" stroke-linecap="round"/>
  <line x1="15" y1="29" x2="29" y2="29" stroke="#0a72ef" stroke-width="3" stroke-linecap="round"/>
  <line x1="33" y1="29" x2="38" y2="29" stroke="#0a72ef" stroke-width="3" stroke-linecap="round"/>
  <!-- White covers at warp-on-top intersections -->
  <rect x="11" y="13" width="4" height="4" fill="#ffffff"/>
  <rect x="29" y="13" width="4" height="4" fill="#ffffff"/>
  <rect x="20" y="20" width="4" height="4" fill="#ffffff"/>
  <rect x="11" y="27" width="4" height="4" fill="#ffffff"/>
  <rect x="29" y="27" width="4" height="4" fill="#ffffff"/>
</svg>
